<svg width="68" height="119" viewBox="0 0 68 119" fill="none" xmlns="http://www.w3.org/2000/svg">
<path d="M50.012 62.8141L38.8013 71.7193L23.5059 83.9693C23.9584 85.9174 24.2843 87.8905 24.4817 89.8772C25.2986 97.8267 23.1654 105.081 10.9789 107.796C10.9789 107.796 -1.0259 118.526 22.9612 118.852C46.9484 119.177 52.4629 107.992 52.4629 107.992C43.4082 99.3036 46.903 75.7375 50.012 62.8141Z" fill="#FFC3BD"/>
<path opacity="0.2" d="M23.5058 83.9693C23.9584 85.9174 24.2843 87.8905 24.4816 89.8772C30.1777 88.7912 37.8028 82.9702 38.597 77.4099C38.8701 75.5613 38.9385 73.6903 38.8013 71.8279L23.5058 83.9693Z" fill="black"/>
<path d="M8.86845 23.1535C1.33417 29.1265 2.69579 52.2365 9.93505 50.108C17.1743 47.9794 21.3045 13.3361 8.86845 23.1535Z" fill="#C0A484"/>
<path d="M54.6414 44.2219C50.7381 61.3806 49.3765 71.589 38.7559 79.4299C35.3404 82.0009 31.2565 83.6308 26.9444 84.1442C22.6324 84.6575 18.2557 84.0347 14.2862 82.3429C10.3167 80.6512 6.90482 77.9546 4.41846 74.5438C1.9321 71.1331 0.465542 67.1376 0.176778 62.9879C-1.20753 47.002 5.41899 21.6114 24.2774 16.7461C28.3351 15.5942 32.6378 15.4833 36.7544 16.4245C40.871 17.3658 44.6568 19.3261 47.7323 22.1091C50.8078 24.892 53.065 28.3998 54.2776 32.2809C55.4903 36.1619 55.6157 40.2798 54.6414 44.2219Z" fill="#FFC3BD"/>
<path d="M48.7411 55.9941C45.8363 52.5623 45.6321 43.8309 47.6972 41.0507C44.5882 38.6833 41.4791 31.0378 43.8846 28.0188C37.8028 27.6278 6.32673 34.8605 0.0632935 13.2274C3.32278 13.7594 6.65289 13.7594 9.91238 13.2274C9.91238 13.2274 3.51277 3.04079 14.8596 0C16.5162 5.14763 30.2004 5.66891 36.9858 5.42999C50.897 4.88699 66.7598 10.4256 60.3375 20.7643C70.5042 25.0431 72.1609 43.9395 48.7411 55.9941Z" fill="#C0A484"/>
<path d="M57.8185 20.1126C57.8185 20.1126 64.7627 21.5026 63.4238 13.0319C69.1653 17.6799 65.4889 26.1725 57.8185 20.1126Z" fill="#C0A484"/>
<path d="M57.5688 60.0774C55.1379 63.103 51.6349 65.1734 47.7197 65.8984C42.6363 66.7672 41.0932 62.2929 43.3398 57.9706C45.3596 54.061 50.4429 48.9134 55.1178 50.0211C59.7927 51.1288 60.587 56.3416 57.5688 60.0774Z" fill="#FFC3BD"/>
<path d="M23.9142 45.7857C23.6873 47.1975 22.7341 48.2401 21.7583 48.1315C20.7824 48.0229 20.1924 46.7848 20.4194 45.3948C20.6463 44.0047 21.6221 42.9187 22.6887 43.0273C23.7553 43.1359 24.1411 44.3739 23.9142 45.7857Z" fill="#19700B"/>
<path d="M7.21179 43.8744C6.98486 45.2862 6.0317 46.3505 5.05587 46.2419C4.08005 46.1333 3.49002 44.8952 3.71696 43.4834C3.9439 42.0716 4.91968 41.0291 5.87281 41.1377C6.82594 41.2463 7.43873 42.4626 7.21179 43.8744Z" fill="#19700B"/>
<path d="M12.4313 44.8734C10.0238 49.6495 6.97123 54.0943 3.35388 58.0909C4.42453 58.9235 5.67196 59.5165 7.00689 59.8274C8.34183 60.1383 9.73124 60.1595 11.0756 59.8894L12.4313 44.8734Z" fill="#ED847E"/>
<path d="M12.1784 65.3912C13.8871 65.6418 15.6313 65.5573 17.3049 65.1429C18.9785 64.7284 20.5466 63.9926 21.9139 62.9802C21.9572 62.9446 21.9926 62.9011 22.0182 62.8524C22.0439 62.8036 22.0593 62.7505 22.0635 62.696C22.0677 62.6416 22.0607 62.5869 22.0428 62.535C22.0249 62.4832 21.9966 62.4352 21.9593 62.3938C21.9221 62.3525 21.8767 62.3185 21.8257 62.294C21.7748 62.2694 21.7192 62.2547 21.6623 62.2507C21.6054 62.2466 21.5483 62.2533 21.4941 62.2704C21.4399 62.2875 21.3898 62.3147 21.3466 62.3504C19.8441 63.4281 18.1029 64.1609 16.2575 64.4923C14.4121 64.8237 12.5118 64.7448 10.7033 64.2617C10.6482 64.2488 10.5909 64.2464 10.5348 64.2546C10.4787 64.2629 10.4248 64.2817 10.3763 64.31C10.3278 64.3382 10.2856 64.3754 10.2522 64.4193C10.2187 64.4632 10.1946 64.513 10.1813 64.5658C10.1642 64.6171 10.1583 64.6713 10.1641 64.7249C10.1698 64.7785 10.1871 64.8304 10.2148 64.8773C10.2425 64.9242 10.28 64.9651 10.325 64.9975C10.37 65.0299 10.4216 65.053 10.4763 65.0654C11.0351 65.2114 11.6038 65.3203 12.1784 65.3912Z" fill="#263238"/>
<path d="M33.4002 37.0543C33.5467 37.0286 33.6814 36.9603 33.786 36.8588C33.8669 36.7821 33.9312 36.6907 33.975 36.5901C34.0189 36.4894 34.0415 36.3815 34.0415 36.2724C34.0415 36.1633 34.0189 36.0553 33.975 35.9547C33.9312 35.854 33.8669 35.7627 33.786 35.686C32.8968 34.6831 31.7622 33.9063 30.4832 33.425C29.2042 32.9437 27.8207 32.7728 26.4559 32.9275C26.3421 32.9433 26.2327 32.9808 26.1342 33.0377C26.0357 33.0946 25.9501 33.1698 25.8824 33.2589C25.8147 33.3479 25.7663 33.449 25.7401 33.5563C25.7139 33.6635 25.7103 33.7747 25.7297 33.8832C25.7738 34.1011 25.9056 34.2937 26.0965 34.4197C26.2875 34.5456 26.5225 34.5947 26.7509 34.5565C27.8191 34.46 28.8959 34.6064 29.8937 34.9838C30.8915 35.3613 31.7819 35.9591 32.4924 36.7285C32.59 36.866 32.7297 36.9711 32.8922 37.0295C33.0548 37.0878 33.2322 37.0965 33.4002 37.0543Z" fill="#836C51"/>
<path d="M1.71987 33.6226C1.85434 33.6678 1.99905 33.6775 2.1388 33.6507C2.27855 33.624 2.4082 33.5617 2.51416 33.4705C3.34977 32.76 4.34639 32.245 5.42545 31.9661C6.50451 31.6872 7.63648 31.652 8.73219 31.8632C8.95768 31.9176 9.19643 31.8871 9.39912 31.778C9.6018 31.6689 9.75298 31.4895 9.82151 31.2768C9.88434 31.0608 9.85513 30.8297 9.74027 30.6343C9.62541 30.4389 9.43424 30.295 9.20873 30.2342C7.83812 29.9619 6.42027 29.9967 5.06602 30.3358C3.71176 30.6749 2.45785 31.3092 1.4022 32.189C1.31066 32.2565 1.23459 32.3412 1.17885 32.4381C1.12311 32.5349 1.08887 32.6417 1.07822 32.7518C1.06757 32.8619 1.08079 32.9729 1.117 33.0778C1.15322 33.1828 1.21164 33.2795 1.28869 33.3619C1.40258 33.4874 1.55254 33.5781 1.71987 33.6226Z" fill="#836C51"/>
</svg>
