<svg width="800" height="800" viewBox="0 0 800 800" fill="none" xmlns="http://www.w3.org/2000/svg">
<path d="M63 148.007V651.993C63 699.565 100.435 737 148.007 737H651.993C675.277 737 697.524 725.86 711.708 711.708C726.896 696.52 737 677.285 737 651.993V148.007C737 100.435 699.565 63 651.993 63H148.007C122.715 63 103.48 73.1361 88.2916 88.2916C74.1076 102.476 63 124.723 63 148.007ZM154.095 214.782C154.095 182.398 180.423 154.063 212.807 154.063C246.194 154.063 273.526 182.398 273.526 214.782C273.526 248.169 246.194 274.497 212.807 274.497C180.423 274.497 154.095 248.169 154.095 214.782ZM317.017 630.717V322.069C317.017 314.977 324.109 308.921 329.161 308.921H415.172C427.316 308.921 427.316 323.105 427.316 332.205C451.603 307.917 482.983 301.829 515.367 301.829C594.318 301.829 644.901 339.265 644.901 422.264V630.749C644.901 637.841 638.813 643.897 632.757 643.897H543.702C536.61 643.897 531.558 636.805 531.558 630.749V442.503C531.558 411.124 522.459 393.928 487.031 393.928C442.503 393.928 431.364 423.268 431.364 462.743V630.749C431.364 637.841 424.272 643.897 417.18 643.897H329.128C324.077 643.897 316.985 636.805 316.985 630.749L317.017 630.717ZM156.103 630.717V322.069C156.103 314.977 163.195 308.921 168.247 308.921H256.298C264.394 308.921 269.445 313.973 269.445 322.069V630.717C269.445 637.809 263.357 643.865 256.298 643.865H168.247C162.159 643.865 156.103 636.773 156.103 630.717Z" fill="white" stroke="white" stroke-width="25"/>
</svg>
