<svg width="253" height="226" viewBox="0 0 253 226" fill="none" xmlns="http://www.w3.org/2000/svg">
<path d="M181.751 217.341L168.508 215.876V143.42H157.156V215.876L143.912 217.341L142.76 220.932H182.903L181.751 217.341Z" fill="#263238"/>
<path opacity="0.4" d="M181.751 217.341L168.508 215.876V143.42H157.156V215.876L143.912 217.341L142.76 220.932H182.903L181.751 217.341Z" fill="#737373"/>
<path d="M159.45 45.9248H218.457C208.466 75.7059 203.33 106.774 203.228 138.042H144.221C144.323 106.774 149.459 75.7059 159.45 45.9248Z" fill="#737373"/>
<path opacity="0.3" d="M159.45 45.9248H218.457C208.466 75.7059 203.33 106.774 203.228 138.042H144.221C144.323 106.774 149.459 75.7059 159.45 45.9248Z" fill="black"/>
<path d="M155.863 45.9248H214.87C204.876 75.7054 199.736 106.773 199.631 138.042H140.624C140.724 106.773 145.864 75.7044 155.863 45.9248Z" fill="#737373"/>
<path d="M189.675 146.69H106.147C109.66 139.4 116.047 134.934 122.941 134.934H184.018L189.675 146.69Z" fill="#737373"/>
<path d="M206.647 146.69H166.316C169.819 139.4 176.207 134.934 183.109 134.934H197.384C204.277 134.934 207.686 138.73 206.647 146.69Z" fill="#737373"/>
<path opacity="0.3" d="M206.647 146.69H166.316C169.819 139.4 176.207 134.934 183.109 134.934H197.384C204.277 134.934 207.686 138.73 206.647 146.69Z" fill="black"/>
<path d="M124.28 213.473L116.722 214.42L111.805 198.09L119.363 197.143L124.28 213.473Z" fill="#FFC3BD"/>
<path d="M115.776 212.535L124.205 211.472C124.347 211.451 124.491 211.483 124.608 211.561C124.725 211.64 124.806 211.758 124.833 211.892L126.125 218.243C126.174 218.579 126.081 218.92 125.867 219.191C125.652 219.462 125.335 219.642 124.983 219.69C122.023 220.012 120.59 220.021 116.862 220.494C114.568 220.78 106.672 221.825 103.478 221.843C100.284 221.861 100.443 218.851 101.755 218.556C107.815 217.305 112.619 214.983 114.53 213.134C114.865 212.808 115.303 212.598 115.776 212.535Z" fill="#263238"/>
<path opacity="0.2" d="M119.363 197.152L111.805 198.099L114.343 206.514L121.901 205.567L119.363 197.152Z" fill="black"/>
<path d="M149.073 108.769C149.073 108.769 89.8314 112.815 92.2198 133.513C95.6572 163.269 109.079 202.342 109.079 202.342L122.819 200.091C122.819 200.091 117.068 164.064 114.015 140.838C128.795 134.996 168.882 140.597 173.584 128.421C175.89 122.115 176.499 115.358 175.354 108.769H149.073Z" fill="#263238"/>
<path opacity="0.3" d="M120.206 126.001C120.206 126.001 121.648 132.155 122.632 138.837H122.501L120.983 139.061L120.206 139.204L119.335 139.355C118.145 139.594 116.97 139.892 115.813 140.249L115.017 140.499C114.671 140.606 114.333 140.74 114.015 140.865C114.362 143.545 115.56 147.038 115.57 150.093C102.391 135.228 113.256 126.001 120.206 126.001Z" fill="black"/>
<path d="M124.973 203.066L108.854 205.085L106.681 199.555L122.819 196.107L124.973 203.066Z" fill="#737373"/>
<path d="M113.266 214.089C113.942 213.988 114.604 213.817 115.242 213.58C115.274 213.569 115.302 213.55 115.324 213.525C115.345 213.5 115.359 213.469 115.364 213.437C115.365 213.404 115.356 213.371 115.338 213.342C115.319 213.313 115.293 213.291 115.261 213.276C114.998 213.142 112.676 212.017 111.795 212.481C111.697 212.535 111.613 212.612 111.553 212.704C111.492 212.796 111.457 212.9 111.449 213.008C111.412 213.173 111.425 213.345 111.487 213.503C111.548 213.661 111.655 213.799 111.795 213.902C112.244 214.136 112.768 214.203 113.266 214.089ZM114.727 213.402C113.416 213.821 112.413 213.911 112.011 213.616C111.925 213.546 111.86 213.455 111.824 213.353C111.787 213.25 111.781 213.141 111.805 213.035C111.805 212.983 111.82 212.931 111.848 212.886C111.876 212.84 111.916 212.803 111.964 212.776C112.441 212.562 113.781 213.008 114.727 213.437V213.402Z" fill="#737373"/>
<path d="M115.204 213.625C115.229 213.634 115.255 213.634 115.279 213.625C115.306 213.608 115.327 213.586 115.342 213.559C115.357 213.533 115.364 213.503 115.364 213.473C115.364 213.393 115.242 211.293 114.38 210.695C114.272 210.613 114.145 210.558 114.01 210.533C113.874 210.508 113.735 210.515 113.603 210.552C113.452 210.575 113.314 210.646 113.211 210.753C113.107 210.86 113.044 210.997 113.031 211.141C112.966 211.945 114.305 213.312 115.111 213.643C115.143 213.646 115.176 213.64 115.204 213.625ZM113.771 210.838C113.914 210.82 114.058 210.855 114.174 210.936C114.683 211.577 114.965 212.356 114.98 213.16C114.249 212.714 113.341 211.669 113.387 211.141C113.387 211.034 113.434 210.909 113.687 210.856L113.771 210.838Z" fill="#737373"/>
<path d="M157.277 52.8925C156.622 55.6975 155.826 58.306 155.03 60.9859C154.233 63.6658 153.334 66.2832 152.36 68.9006C151.386 71.5179 150.365 74.1353 149.251 76.7348C148.136 79.3344 146.89 81.8981 145.551 84.4441L145.307 84.8996L145.214 85.0336C144.402 86.1328 143.401 87.0932 142.254 87.8743C141.374 88.4851 140.451 89.0373 139.491 89.527C137.773 90.377 135.992 91.1056 134.162 91.7066C132.391 92.2962 130.621 92.7875 128.851 93.2074C127.069 93.6299 125.265 93.9639 123.447 94.2079L121.695 89.0267L126.144 86.6505C127.615 85.8465 129.066 85.0515 130.453 84.2297C131.791 83.4598 133.086 82.6219 134.33 81.7195C134.862 81.3424 135.36 80.9241 135.819 80.4689C136.204 80.0847 136.484 79.7095 136.428 79.6738L136.091 80.2634C137.112 77.8872 138.049 75.4485 138.957 72.983C139.866 70.5174 140.69 68.0162 141.505 65.4881C142.32 62.9601 143.097 60.432 143.856 57.8861C144.614 55.3402 145.354 52.7496 146.057 50.293L157.277 52.8925Z" fill="#FFC3BD"/>
<path d="M144.895 50.9541C138.704 57.7343 134.593 67.2212 134.593 67.2212L150.796 76.5205C155.479 71.0802 161.305 56.707 161.539 51.8563C161.904 44.4062 151.564 43.6558 144.895 50.9541Z" fill="#737373"/>
<path opacity="0.5" d="M144.895 50.9541C138.704 57.7343 134.593 67.2212 134.593 67.2212L150.796 76.5205C155.479 71.0802 161.305 56.707 161.539 51.8563C161.904 44.4062 151.564 43.6558 144.895 50.9541Z" fill="white"/>
<path opacity="0.5" d="M150.599 57.8682C147.068 60.7 144.558 66.5869 143.462 72.304L150.796 76.5115C153.11 73.8316 155.704 68.9631 157.765 64.1214C156.116 59.3243 153.718 55.367 150.599 57.8682Z" fill="#737373"/>
<path d="M148.314 217.823H140.699L137.206 201.002H144.82L148.314 217.823Z" fill="#FFC3BD"/>
<path d="M140.456 216.055H149.016C149.159 216.05 149.298 216.099 149.403 216.19C149.508 216.282 149.571 216.41 149.578 216.546L149.991 223.005C149.993 223.344 149.855 223.671 149.605 223.914C149.356 224.156 149.017 224.295 148.661 224.3C145.682 224.246 144.258 224.085 140.493 224.085C138.18 224.085 130.331 224.309 127.137 224.309C123.943 224.309 124.027 221.298 125.386 221.021C131.455 219.798 137 218.109 139.145 216.501C139.517 216.217 139.979 216.06 140.456 216.055Z" fill="#263238"/>
<path opacity="0.2" d="M144.82 201.002H137.206L139.013 209.676H146.628L144.82 201.002Z" fill="black"/>
<path d="M163.993 108.769C163.993 108.769 113.79 112.815 115.026 133.612C116.375 156.382 135.707 207.586 135.707 207.586H149.653C149.653 207.586 143.341 161.259 140.287 138.069C154.439 138.069 183.803 140.615 188.504 128.439C190.802 122.247 191.265 115.571 189.844 109.144L163.993 108.769Z" fill="#263238"/>
<path d="M150.449 207.792L133.721 208.515L132.429 201.663L149.934 201.717L150.449 207.792Z" fill="#737373"/>
<path d="M137.758 217.323C138.443 217.304 139.124 217.217 139.791 217.064C139.824 217.056 139.854 217.039 139.877 217.015C139.9 216.992 139.916 216.962 139.922 216.93C139.929 216.898 139.926 216.864 139.912 216.834C139.899 216.804 139.876 216.778 139.847 216.76C139.603 216.6 137.449 215.188 136.522 215.536C136.416 215.577 136.323 215.643 136.251 215.727C136.179 215.811 136.13 215.912 136.11 216.019C136.059 216.173 136.053 216.338 136.093 216.495C136.132 216.653 136.216 216.797 136.335 216.912C136.738 217.216 137.246 217.363 137.758 217.323ZM139.304 216.814C137.936 217.073 136.934 217.037 136.578 216.698C136.504 216.615 136.454 216.516 136.433 216.409C136.412 216.303 136.42 216.193 136.456 216.09C136.465 216.037 136.487 215.988 136.522 215.945C136.556 215.903 136.601 215.87 136.653 215.849C137.15 215.67 138.414 216.278 139.304 216.814Z" fill="#737373"/>
<path d="M139.781 217.064H139.856C139.883 217.052 139.906 217.033 139.922 217.009C139.938 216.986 139.948 216.958 139.95 216.93C139.95 216.841 140.128 214.75 139.36 214.045C139.261 213.955 139.143 213.887 139.013 213.845C138.884 213.803 138.746 213.789 138.611 213.803C138.458 213.81 138.312 213.864 138.195 213.958C138.078 214.052 137.997 214.179 137.964 214.322C137.796 215.108 138.901 216.626 139.688 217.055C139.717 217.067 139.75 217.07 139.781 217.064ZM138.732 214.116C138.804 214.116 138.875 214.129 138.941 214.155C139.007 214.181 139.066 214.22 139.116 214.268C139.539 214.965 139.716 215.773 139.622 216.573C138.957 216.046 138.199 214.893 138.311 214.375C138.311 214.277 138.395 214.152 138.657 214.125L138.732 214.116Z" fill="#737373"/>
<path d="M125.301 89.2232L116.787 87.1865L117.387 95.8694C117.387 95.8694 125.816 95.8694 126.528 93.5022L125.301 89.2232Z" fill="#FFC3BD"/>
<path d="M110.315 91.4207L112.32 96.8699L117.387 95.8694L116.787 87.1865L110.315 91.4207Z" fill="#FFC3BD"/>
<path d="M149.148 109.144H189.872C190.162 105.678 189.319 94.3866 189.947 80.0133C190.333 69.3627 191.687 58.7642 193.993 48.3367C194.18 47.5506 194.368 46.7824 194.564 45.9963C194.564 45.9963 192.494 45.5943 189.535 45.1833C187.081 44.835 183.999 44.4866 180.983 44.3526C175.219 44.0352 169.439 44.0352 163.675 44.3526C161.015 44.5848 158.411 45.0047 156.341 45.3888C153.69 45.898 152.126 46.3357 152.126 46.3357C152.126 46.3357 142.067 68.302 149.148 109.144Z" fill="#737373"/>
<path opacity="0.5" d="M149.148 109.144H189.872C190.162 105.678 189.319 94.3866 189.947 80.0133C190.333 69.3627 191.687 58.7642 193.993 48.3367C194.18 47.5506 194.368 46.7824 194.564 45.9963C194.564 45.9963 192.494 45.5943 189.535 45.1833C187.081 44.835 183.999 44.4866 180.983 44.3526C175.219 44.0352 169.439 44.0352 163.675 44.3526C161.015 44.5848 158.411 45.0047 156.341 45.3888C153.69 45.898 152.126 46.3357 152.126 46.3357C152.126 46.3357 142.067 68.302 149.148 109.144Z" fill="#1E2D65"/>
<path opacity="0.5" d="M189.919 80.0222C190.306 69.3688 191.659 58.7673 193.965 48.3367C191.249 48.1134 186.594 48.3367 185.826 52.562C184.992 57.0643 184.927 67.5874 189.919 80.0222Z" fill="#48506B"/>
<path d="M197.121 51.0255C197.515 51.7134 197.786 52.2315 198.058 52.8121C198.33 53.3928 198.629 53.9734 198.901 54.5987C199.444 55.76 199.959 56.9302 200.446 58.1094C201.422 60.4855 202.263 62.9098 202.966 65.372C203.69 67.8673 204.25 70.4032 204.642 72.9651C205.051 75.6082 205.214 78.2807 205.129 80.9512V81.2103V81.7195C205.099 82.0766 205.046 82.4316 204.97 82.7825C204.826 83.4488 204.6 84.0966 204.296 84.712C203.785 85.7383 203.091 86.6723 202.245 87.4723C200.986 88.641 199.542 89.6119 197.964 90.3488C195.418 91.5317 192.737 92.4309 189.975 93.0287C187.412 93.6117 184.816 94.0561 182.201 94.3597C179.615 94.669 177.014 94.8479 174.408 94.8957L173.64 89.4912C178.275 88.2515 182.843 86.7906 187.324 85.114C189.359 84.3634 191.313 83.427 193.159 82.318C193.801 81.9388 194.372 81.4586 194.845 80.8976C194.967 80.7279 194.967 80.6385 194.901 80.7189C194.85 80.7892 194.811 80.8679 194.789 80.9512C194.768 81.0093 194.752 81.0691 194.742 81.1299C194.742 81.1299 194.742 81.2192 194.742 81.1835V80.9959C194.387 76.7174 193.484 72.4964 192.054 68.4271C191.342 66.3308 190.549 64.2464 189.675 62.1739C189.254 61.1377 188.804 60.1015 188.336 59.0831L187.615 57.5734L186.931 56.1709L197.121 51.0255Z" fill="#FFC3BD"/>
<path d="M194.536 45.9962C187.118 43.763 182.36 49.4176 184.421 59.2172C186.481 69.0167 189.104 72.6703 189.104 72.6703L206.45 70.3299C205.036 60.7179 202.123 48.2831 194.536 45.9962Z" fill="#737373"/>
<path d="M194.536 45.9962C187.118 43.763 182.36 49.4176 184.421 59.2172C186.481 69.0167 189.104 72.6703 189.104 72.6703L206.45 70.3299C205.036 60.7179 202.123 48.2831 194.536 45.9962Z" fill="#48506B" fill-opacity="0.7"/>
<path d="M180.581 25.8344L175.954 29.4969L169.641 34.5351C169.828 35.3363 169.962 36.1478 170.044 36.9649C170.381 40.2344 169.5 43.2181 164.471 44.3347C164.471 44.3347 159.516 48.7476 169.416 48.8816C179.316 49.0156 181.592 44.4151 181.592 44.4151C177.855 40.8419 179.297 31.1495 180.581 25.8344Z" fill="#FFC3BD"/>
<path opacity="0.2" d="M169.641 34.5351C169.828 35.3363 169.962 36.1478 170.044 36.9649C172.395 36.5183 175.542 34.1242 175.869 31.8374C175.982 31.077 176.01 30.3075 175.954 29.5416L169.641 34.5351Z" fill="black"/>
<path d="M163.6 9.52265C160.49 11.9792 161.052 21.484 164.04 20.6086C167.028 19.7331 168.732 5.48492 163.6 9.52265Z" fill="#C0A484"/>
<path d="M182.491 18.1877C180.88 25.2448 180.318 29.4433 175.935 32.6681C174.525 33.7255 172.84 34.3959 171.06 34.607C169.28 34.8181 167.474 34.562 165.836 33.8662C164.197 33.1704 162.789 32.0613 161.763 30.6586C160.737 29.2558 160.132 27.6125 160.012 25.9058C159.441 19.3311 162.176 8.88836 169.959 6.88735C171.634 6.41357 173.41 6.36796 175.109 6.75508C176.808 7.1422 178.37 7.94846 179.64 9.09304C180.909 10.2376 181.841 11.6803 182.341 13.2765C182.842 14.8727 182.893 16.5663 182.491 18.1877Z" fill="#FFC3BD"/>
<path d="M180.056 23.0294C178.857 21.618 178.773 18.0269 179.625 16.8835C178.342 15.9098 177.059 12.7653 178.052 11.5236C175.542 11.3628 162.551 14.3375 159.966 5.44022C161.311 5.659 162.685 5.659 164.031 5.44022C164.031 5.44022 161.389 1.25063 166.072 0C166.756 2.11713 172.404 2.33152 175.204 2.23326C180.946 2.00994 187.493 4.28786 184.842 8.53999C189.038 10.2998 189.722 18.0715 180.056 23.0294Z" fill="#C0A484"/>
<path d="M183.803 8.27198C183.803 8.27198 186.669 8.84369 186.116 5.3598C188.486 7.27147 186.968 10.7643 183.803 8.27198Z" fill="#C0A484"/>
<path d="M183.699 24.7088C182.696 25.9532 181.25 26.8047 179.635 27.1029C177.536 27.4602 176.9 25.62 177.827 23.8423C178.66 22.2344 180.758 20.1172 182.688 20.5728C184.617 21.0284 184.945 23.1723 183.699 24.7088Z" fill="#FFC3BD"/>
<path d="M169.809 18.8309C169.716 19.4115 169.322 19.8403 168.92 19.7956C168.517 19.751 168.273 19.2418 168.367 18.6701C168.461 18.0984 168.863 17.6517 169.304 17.6964C169.744 17.741 169.903 18.2502 169.809 18.8309Z" fill="#19700B"/>
<path d="M162.916 18.0447C162.822 18.6254 162.429 19.0631 162.026 19.0185C161.623 18.9738 161.38 18.4646 161.474 17.884C161.567 17.3033 161.97 16.8745 162.363 16.9192C162.757 16.9638 163.01 17.4641 162.916 18.0447Z" fill="#19700B"/>
<path d="M165.07 18.4557C164.076 20.42 162.817 22.2481 161.324 23.8918C161.766 24.2342 162.28 24.4781 162.831 24.606C163.382 24.7339 163.956 24.7426 164.511 24.6315L165.07 18.4557Z" fill="#ED847E"/>
<path d="M164.966 26.8942C165.671 26.9973 166.391 26.9626 167.082 26.7921C167.772 26.6217 168.42 26.3191 168.984 25.9027C169.002 25.888 169.016 25.8701 169.027 25.8501C169.038 25.83 169.044 25.8082 169.046 25.7858C169.047 25.7634 169.044 25.7409 169.037 25.7196C169.03 25.6982 169.018 25.6785 169.003 25.6615C168.987 25.6445 168.969 25.6305 168.947 25.6204C168.926 25.6103 168.904 25.6043 168.88 25.6026C168.857 25.601 168.833 25.6037 168.811 25.6107C168.788 25.6178 168.768 25.629 168.75 25.6436C168.13 26.0869 167.411 26.3883 166.649 26.5246C165.888 26.6609 165.103 26.6284 164.357 26.4297C164.334 26.4244 164.311 26.4234 164.287 26.4268C164.264 26.4302 164.242 26.438 164.222 26.4496C164.202 26.4612 164.185 26.4765 164.171 26.4945C164.157 26.5126 164.147 26.5331 164.142 26.5548C164.134 26.5759 164.132 26.5982 164.134 26.6202C164.137 26.6423 164.144 26.6636 164.155 26.6829C164.167 26.7022 164.182 26.719 164.201 26.7323C164.219 26.7457 164.241 26.7552 164.263 26.7603C164.494 26.8203 164.729 26.8651 164.966 26.8942Z" fill="#263238"/>
<path d="M173.725 15.2398C173.785 15.2292 173.841 15.2011 173.884 15.1594C173.917 15.1278 173.944 15.0903 173.962 15.0489C173.98 15.0075 173.989 14.963 173.989 14.9182C173.989 14.8733 173.98 14.8289 173.962 14.7875C173.944 14.7461 173.917 14.7086 173.884 14.677C173.517 14.2645 173.048 13.9451 172.521 13.7471C171.993 13.5492 171.422 13.4789 170.858 13.5425C170.811 13.549 170.766 13.5644 170.726 13.5878C170.685 13.6112 170.65 13.6422 170.622 13.6788C170.594 13.7154 170.574 13.757 170.563 13.8011C170.552 13.8452 170.551 13.8909 170.559 13.9356C170.577 14.0252 170.631 14.1044 170.71 14.1562C170.789 14.208 170.886 14.2282 170.98 14.2125C171.421 14.1728 171.865 14.233 172.277 14.3882C172.689 14.5435 173.057 14.7893 173.35 15.1058C173.39 15.1623 173.448 15.2056 173.515 15.2296C173.582 15.2536 173.655 15.2571 173.725 15.2398Z" fill="#836C51"/>
<path d="M160.649 13.8284C160.705 13.847 160.765 13.851 160.822 13.84C160.88 13.829 160.933 13.8034 160.977 13.7659C161.322 13.4736 161.733 13.2618 162.179 13.1471C162.624 13.0324 163.091 13.0179 163.543 13.1048C163.637 13.1272 163.735 13.1146 163.819 13.0698C163.902 13.0249 163.965 12.9511 163.993 12.8636C164.019 12.7748 164.007 12.6797 163.96 12.5994C163.912 12.519 163.833 12.4598 163.74 12.4348C163.174 12.3228 162.589 12.3371 162.03 12.4766C161.471 12.6161 160.954 12.8769 160.518 13.2388C160.48 13.2665 160.449 13.3014 160.426 13.3412C160.403 13.3811 160.389 13.425 160.384 13.4703C160.38 13.5155 160.386 13.5612 160.4 13.6044C160.415 13.6475 160.44 13.6873 160.471 13.7212C160.518 13.7728 160.58 13.8101 160.649 13.8284Z" fill="#836C51"/>
<ellipse cx="165.22" cy="95.1497" rx="7.90625" ry="5.05041" fill="#3A3737"/>
<ellipse cx="0.81043" cy="0.202134" rx="0.81043" ry="0.202134" transform="matrix(0.914076 -0.405543 0.407918 0.913019 159.747 91.5647)" fill="#D9D9D9"/>
<path d="M175.073 89.1697H168.039L171.448 96.3161C171.448 96.3161 178.361 96.2178 178.005 92.8233L175.073 89.1697Z" fill="#FFC3BD"/>
<path d="M161.333 93.7702L164.939 98.4064L171.449 96.3072L168.039 89.1607L161.333 93.7702Z" fill="#FFC3BD"/>
<rect x="106.633" y="92.1194" width="47.8429" height="5.25242" rx="2.62621" fill="#3A3737"/>
<path d="M227.215 225.604H230.633L230.633 101.203H227.215L227.215 225.604Z" fill="#737373"/>
<path d="M247.408 225.604H250.827L250.827 101.203H247.408L247.408 225.604Z" fill="#737373"/>
<path opacity="0.2" d="M247.408 225.604H250.827L250.827 101.203H247.408L247.408 225.604Z" fill="black"/>
<path d="M32.9598 225.604H36.3785L36.3785 101.203H32.9598L32.9598 225.604Z" fill="#737373"/>
<path opacity="0.2" d="M32.9598 101.203H36.3785V184.789L32.9598 177.491V101.203Z" fill="black"/>
<path d="M12.7757 225.604H16.1943L16.1943 101.203H12.7757L12.7757 225.604Z" fill="#737373"/>
<path d="M12.7756 173.971L230.643 173.971V101.203L12.7756 101.203V173.971Z" fill="#8F8678"/>
<path d="M10.5933 101.203L230.643 101.203V95.8874L10.5933 95.8874V101.203Z" fill="#8F8678"/>
<path d="M250.818 101.203H230.633V173.971H250.818V101.203Z" fill="#737373"/>
<path opacity="0.6" d="M250.818 101.203H230.633V173.971H250.818V101.203Z" fill="#8F8678"/>
<path d="M253 95.8964H230.633V101.212H253V95.8964Z" fill="#737373"/>
<path opacity="0.6" d="M253 95.8964H230.633V101.212H253V95.8964Z" fill="#8F8678"/>
<path opacity="0.2" d="M12.7757 104.91L250.827 104.91V101.212L12.7757 101.212V104.91Z" fill="black"/>
<path d="M149.035 81.6124H68.0643C66.5567 81.5942 65.1127 81.0306 64.0242 80.0356C62.9357 79.0405 62.2841 77.6884 62.2011 76.2526L60.0656 31.373C60.026 30.681 60.1352 29.9887 60.3864 29.3384C60.6376 28.6882 61.0256 28.0939 61.5265 27.5919C62.0274 27.0899 62.6306 26.6909 63.299 26.4194C63.9675 26.1479 64.6872 26.0097 65.4137 26.0131H146.385C147.89 26.0336 149.332 26.5982 150.419 27.593C151.505 28.5878 152.156 29.9387 152.238 31.373L154.383 76.2526C154.424 76.9448 154.316 77.6377 154.065 78.2885C153.815 78.9393 153.427 79.5342 152.926 80.0365C152.424 80.5387 151.821 80.9377 151.151 81.2087C150.482 81.4798 149.762 81.6172 149.035 81.6124Z" fill="#737373"/>
<path d="M147.949 81.6124H66.9779C65.4703 81.5942 64.0262 81.0306 62.9377 80.0356C61.8492 79.0405 61.1976 77.6884 61.1146 76.2526L58.9791 31.373C58.9395 30.681 59.0487 29.9887 59.2999 29.3384C59.5511 28.6882 59.9391 28.0939 60.44 27.5919C60.9409 27.0899 61.5441 26.6909 62.2126 26.4194C62.881 26.1479 63.6007 26.0097 64.3272 26.0131H145.298C146.804 26.0336 148.246 26.5982 149.332 27.593C150.419 28.5878 151.069 29.9387 151.152 31.373L153.297 76.2526C153.338 76.9448 153.23 77.6377 152.979 78.2885C152.728 78.9393 152.34 79.5342 151.839 80.0365C151.338 80.5387 150.734 80.9377 150.065 81.2087C149.396 81.4798 148.676 81.6172 147.949 81.6124Z" fill="#737373"/>
<path opacity="0.2" d="M147.949 81.6124H66.9779C65.4703 81.5942 64.0262 81.0306 62.9377 80.0356C61.8492 79.0405 61.1976 77.6884 61.1146 76.2526L58.9791 31.373C58.9395 30.681 59.0487 29.9887 59.2999 29.3384C59.5511 28.6882 59.9391 28.0939 60.44 27.5919C60.9409 27.0899 61.5441 26.6909 62.2126 26.4194C62.881 26.1479 63.6007 26.0097 64.3272 26.0131H145.298C146.804 26.0336 148.246 26.5982 149.332 27.593C150.419 28.5878 151.069 29.9387 151.152 31.373L153.297 76.2526C153.338 76.9448 153.23 77.6377 152.979 78.2885C152.728 78.9393 152.34 79.5342 151.839 80.0365C151.338 80.5387 150.734 80.9377 150.065 81.2087C149.396 81.4798 148.676 81.6172 147.949 81.6124Z" fill="white"/>
<path d="M114.736 54.4917H99.2725V81.6124H114.736V54.4917Z" fill="#737373"/>
<path d="M98.7855 51.5974L91.9575 95.8785H108.686L115.514 51.5974H98.7855ZM108.611 65.6669L107.505 72.8134C107.424 73.3437 107.146 73.8287 106.722 74.1796C106.297 74.5306 105.754 74.7242 105.192 74.725H102.672C102.336 74.7245 102.003 74.6549 101.696 74.521C101.39 74.3871 101.118 74.192 100.897 73.9488C100.677 73.7057 100.514 73.4203 100.42 73.1118C100.325 72.8034 100.301 72.4792 100.35 72.1612L101.455 65.0148C101.536 64.4844 101.814 63.9995 102.239 63.6485C102.663 63.2976 103.206 63.104 103.768 63.1031H106.288C106.625 63.1037 106.958 63.1732 107.264 63.3071C107.57 63.4411 107.843 63.6362 108.063 63.8793C108.283 64.1224 108.446 64.4079 108.541 64.7163C108.635 65.0247 108.659 65.3489 108.611 65.6669Z" fill="#737373"/>
<path opacity="0.2" d="M98.7855 51.5974L91.9575 95.8785H108.686L115.514 51.5974H98.7855ZM108.611 65.6669L107.505 72.8134C107.424 73.3437 107.146 73.8287 106.722 74.1796C106.297 74.5306 105.754 74.7242 105.192 74.725H102.672C102.336 74.7245 102.003 74.6549 101.696 74.521C101.39 74.3871 101.118 74.192 100.897 73.9488C100.677 73.7057 100.514 73.4203 100.42 73.1118C100.325 72.8034 100.301 72.4792 100.35 72.1612L101.455 65.0148C101.536 64.4844 101.814 63.9995 102.239 63.6485C102.663 63.2976 103.206 63.104 103.768 63.1031H106.288C106.625 63.1037 106.958 63.1732 107.264 63.3071C107.57 63.4411 107.843 63.6362 108.063 63.8793C108.283 64.1224 108.446 64.4079 108.541 64.7163C108.635 65.0247 108.659 65.3489 108.611 65.6669Z" fill="white"/>
<path d="M118.22 92.6447H88.9416L85.345 95.8964H126.004L118.22 92.6447Z" fill="#737373"/>
<path opacity="0.2" d="M118.22 92.6447H88.9416L85.345 95.8964H126.004L118.22 92.6447Z" fill="white"/>
<path d="M31.7515 85.9628C30.1031 85.0695 30.6651 76.4759 31.3863 71.5627C32.2667 65.6222 34.8892 55.108 43.2251 49.2837C47.1964 46.5055 50.9897 44.1472 51.6547 41.1546C52.8723 43.8345 59.794 62.8083 49.922 71.3394C41.5673 78.5484 35.3763 76.9404 31.7515 85.9628Z" fill="#737373"/>
<g opacity="0.5">
<path d="M31.7515 85.9628C30.1031 85.0695 30.6651 76.4759 31.3863 71.5627C32.2667 65.6222 34.8892 55.108 43.2251 49.2837C47.1964 46.5055 50.9897 44.1472 51.6547 41.1546C52.8723 43.8345 59.794 62.8083 49.922 71.3394C41.5673 78.5484 35.3763 76.9404 31.7515 85.9628Z" fill="#4B6D48"/>
</g>
<path d="M33.9433 81.0854C35.8633 80.0581 33.6623 70.0441 31.9014 64.3448C29.7753 57.4485 24.6613 45.2639 13.169 38.5998C7.71788 35.4286 2.53837 32.7486 1.16154 29.2558C0.0937931 32.3556 -3.33424 56.7696 10.5277 66.5602C22.3011 74.8412 27.8084 70.6516 33.9433 81.0854Z" fill="#4B6D48"/>
<path d="M33.0067 78.8521C32.9503 78.851 32.8956 78.8333 32.8503 78.8013C32.805 78.7692 32.7713 78.7246 32.7538 78.6734C29.911 70.2332 26.3136 62.0413 22.0014 54.188C14.9767 41.0117 5.52623 38.8678 5.43256 38.8499C5.39979 38.8426 5.36887 38.8291 5.34163 38.8103C5.31439 38.7914 5.29137 38.7676 5.27393 38.7401C5.25648 38.7126 5.24495 38.6821 5.24003 38.6504C5.2351 38.6186 5.23688 38.5862 5.24524 38.5551C5.25193 38.524 5.265 38.4945 5.28371 38.4682C5.30241 38.4419 5.32637 38.4194 5.35422 38.4019C5.38207 38.3845 5.41327 38.3725 5.446 38.3666C5.47873 38.3607 5.51236 38.361 5.54496 38.3675C5.64799 38.3675 15.3139 40.5651 22.4603 53.9736C26.7733 61.8563 30.3675 70.0782 33.2034 78.5484C33.2208 78.6111 33.212 78.6779 33.1788 78.7346C33.1456 78.7913 33.0906 78.8334 33.0254 78.8521H33.0067Z" fill="white"/>
<path d="M3.12848 47.4971C3.09594 47.4985 3.06342 47.4938 3.03285 47.483C3.00228 47.4723 2.97429 47.4558 2.95052 47.4345C2.90303 47.3879 2.87646 47.3254 2.87646 47.2603C2.87646 47.1953 2.90303 47.1328 2.95052 47.0862C4.68403 45.5049 6.89147 44.4787 9.26536 44.1504C11.6392 43.8222 14.0614 44.2083 16.1943 45.2549C16.2246 45.2682 16.2517 45.2872 16.2739 45.3109C16.2962 45.3345 16.3131 45.3623 16.3236 45.3924C16.3341 45.4226 16.3381 45.4545 16.3352 45.4861C16.3323 45.5178 16.3226 45.5485 16.3067 45.5765C16.2937 45.6061 16.2744 45.6328 16.2499 45.655C16.2255 45.6771 16.1966 45.6942 16.1649 45.7051C16.1332 45.716 16.0994 45.7206 16.0658 45.7184C16.0322 45.7162 15.9994 45.7075 15.9695 45.6926C13.9278 44.6971 11.6112 44.3342 9.34288 44.6545C7.07455 44.9747 4.96757 45.9622 3.31581 47.4792C3.25738 47.5055 3.19122 47.5118 3.12848 47.4971Z" fill="white"/>
<path d="M13.0285 63.7999C12.9857 63.8119 12.9402 63.8119 12.8974 63.7999C12.8684 63.7842 12.843 63.7631 12.8225 63.738C12.8021 63.7128 12.7871 63.684 12.7784 63.6533C12.7697 63.6226 12.7675 63.5905 12.7718 63.5589C12.7762 63.5274 12.787 63.497 12.8037 63.4694C12.8037 63.389 17.4868 56.0193 24.3523 57.8238C24.4175 57.8425 24.4725 57.8846 24.5057 57.9413C24.5389 57.9979 24.5477 58.0647 24.5302 58.1275C24.5106 58.1897 24.4664 58.2421 24.407 58.2738C24.3476 58.3055 24.2776 58.3139 24.2118 58.2972C17.7397 56.591 13.2908 63.657 13.2533 63.7196C13.2248 63.7485 13.1897 63.7708 13.1507 63.7847C13.1118 63.7987 13.0699 63.8039 13.0285 63.7999Z" fill="white"/>
<path d="M20.4559 51.2758C20.3995 51.2747 20.3449 51.257 20.2996 51.2249C20.2542 51.1929 20.2205 51.1482 20.203 51.0971C19.9658 50.2507 20.0521 49.3514 20.4465 48.5601C20.596 48.336 20.7934 48.1446 21.0258 47.9983C21.2582 47.8521 21.5205 47.7543 21.7953 47.7115C21.8279 47.7037 21.862 47.7024 21.8952 47.7077C21.9284 47.713 21.9601 47.7249 21.9883 47.7426C22.0165 47.7602 22.0405 47.7832 22.0589 47.8101C22.0772 47.8371 22.0895 47.8674 22.095 47.8991C22.109 47.963 22.0963 48.0296 22.0596 48.0847C22.0228 48.1398 21.9649 48.1789 21.8983 48.1939C21.6914 48.2194 21.4931 48.2888 21.3181 48.397C21.143 48.5052 20.9956 48.6495 20.8867 48.8192C20.5696 49.4957 20.5036 50.255 20.6994 50.972C20.7093 51.0025 20.7125 51.0347 20.7087 51.0664C20.705 51.0981 20.6945 51.1288 20.6778 51.1564C20.6611 51.1841 20.6386 51.2082 20.6117 51.2272C20.5848 51.2462 20.5541 51.2597 20.5215 51.2668L20.4559 51.2758Z" fill="white"/>
<path d="M46.5221 76.5117H22.8162L24.9986 95.8696H44.3398L46.5221 76.5117Z" fill="#737373"/>
<path opacity="0.7" d="M46.5221 76.5117H22.8162L24.9986 95.8696H44.3398L46.5221 76.5117Z" fill="white"/>
<path d="M234.38 78.3072V77.1012C234.38 76.843 234.272 76.5953 234.081 76.4127C233.89 76.2301 233.63 76.1275 233.359 76.1275H220.762C220.491 76.1275 220.231 76.2301 220.04 76.4127C219.848 76.5953 219.741 76.843 219.741 77.1012V95.8606H234.38V93.6809C237.564 93.6809 240.065 90.3043 240.065 85.9896C240.065 81.6749 237.574 78.3072 234.38 78.3072ZM234.38 91.7067V80.2903C236.347 80.2903 238.014 82.9166 238.014 86.0253C238.014 89.134 236.356 91.7603 234.38 91.7603V91.7067Z" fill="#737373"/>
<path opacity="0.2" d="M234.38 78.3072V77.1012C234.38 76.843 234.272 76.5953 234.081 76.4127C233.89 76.2301 233.63 76.1275 233.359 76.1275H220.762C220.491 76.1275 220.231 76.2301 220.04 76.4127C219.848 76.5953 219.741 76.843 219.741 77.1012V95.8606H234.38V93.6809C237.564 93.6809 240.065 90.3043 240.065 85.9896C240.065 81.6749 237.574 78.3072 234.38 78.3072ZM234.38 91.7067V80.2903C236.347 80.2903 238.014 82.9166 238.014 86.0253C238.014 89.134 236.356 91.7603 234.38 91.7603V91.7067Z" fill="white"/>
<path opacity="0.3" d="M234.389 80.2903H232.722L234.389 84.6943V80.2903Z" fill="black"/>
<path opacity="0.3" d="M234.389 93.7167H232.722L234.389 94.4492V93.7167Z" fill="black"/>
</svg>
